<?xml version="1.0" encoding="UTF-8"?>
<svg width="68px" height="81px" viewBox="0 0 68 81" version="1.1" xmlns="http://www.w3.org/2000/svg" xmlns:xlink="http://www.w3.org/1999/xlink">
    <!-- Generator: Sketch 41.2 (35397) - http://www.bohemiancoding.com/sketch -->
    <title>Group 3</title>
    <desc>Created with Sketch.</desc>
    <defs></defs>
    <g id="Page-1" stroke="none" stroke-width="1" fill="none" fill-rule="evenodd">
        <g id="Desktop-HD-Copy" transform="translate(-446.000000, -824.000000)">
            <g id="Group-3" transform="translate(446.000000, 825.000000)">
                <g id="glass" transform="translate(31.145525, 40.656475) rotate(2.000000) translate(-31.145525, -40.656475) translate(2.145525, 1.656475)">
                    <g id="Group-2" stroke="#000000" stroke-width="4">
                        <ellipse id="Oval" cx="21.2911392" cy="21.4225352" rx="21.2911392" ry="21.4225352"></ellipse>
                    </g>
                    <rect id="Rectangle-5" fill="#000000" transform="translate(33.405063, 41.746479) rotate(-29.000000) translate(-33.405063, -41.746479) " x="28.6329114" y="39.1830986" width="9.5443038" height="5.12676056" rx="2.56338028"></rect>
                    <path d="M42.0562683,42.6499271 L47.1351479,42.6499271 L49.4118871,76.9597824 C49.4118871,76.9597824 46.7848804,78.0489841 44.7708419,78.0489841 C42.7568034,78.0489841 39.954663,76.9597824 39.954663,76.9597824 L42.0562683,42.6499271 Z" id="Rectangle-6" fill="#000000" transform="translate(44.683275, 60.349456) rotate(-31.000000) translate(-44.683275, -60.349456) "></path>
                    <path d="M22.4746835,6.21126761 C22.4746835,6.21126761 16.4177215,6.21126761 11.6455696,10.056338 C6.87341772,13.9014085 6.13924051,19.943662 6.13924051,19.943662" id="Line" stroke="#000000" stroke-linecap="square"></path>
                </g>
                <g id="left" transform="translate(54.948409, 29.482175) rotate(29.000000) translate(-54.948409, -29.482175) translate(49.948409, 17.982175)" fill="#000000">
                    <rect id="Rectangle-7" transform="translate(5.815455, 19.928945) rotate(-4.000000) translate(-5.815455, -19.928945) " x="3.18557737" y="17.1767468" width="5.25975588" height="5.50439569" rx="2.62987794"></rect>
                    <path d="M2.00880946,0.271874194 L7.44067373,0.271874194 C7.44067373,0.271874194 8.43205409,4.89627726 8.82221426,9.06272253 C9.21237442,13.2291678 6.26819642,14.6931602 6.26819642,14.6931602 C4.56402667,16.2212742 2.16134666,15.8970423 1.23047911,13.808917 C1.23047911,13.808917 0.303226672,14.0004988 0.576392686,9.31672112 C0.661542662,7.8567168 1.1634535,6.55322437 1.64714302,5.22429832 C2.13083255,3.89537227 2.00880946,0.271874194 2.00880946,0.271874194 Z" id="Rectangle-7" transform="translate(4.691933, 7.958406) rotate(176.000000) translate(-4.691933, -7.958406) "></path>
                </g>
                <g id="right" transform="translate(60.948409, 51.482175) rotate(29.000000) translate(-60.948409, -51.482175) translate(55.948409, 39.982175)" fill="#000000">
                    <rect id="Rectangle-7" transform="translate(3.815455, 19.928945) rotate(5.000000) translate(-3.815455, -19.928945) " x="1.18557737" y="17.1767468" width="5.25975588" height="5.50439569" rx="2.62987794"></rect>
                    <path d="M2.00880946,0.271874194 L7.44067373,0.271874194 C7.44067373,0.271874194 8.43205409,4.89627726 8.82221426,9.06272253 C9.21237442,13.2291678 6.26819642,14.6931602 6.26819642,14.6931602 C4.56402667,16.2212742 2.16134666,15.8970423 1.23047911,13.808917 C1.23047911,13.808917 0.303226672,14.0004988 0.576392686,9.31672112 C0.669298511,7.72373293 1.71569697,6.30614646 1.72591577,4.45433241 C1.73613458,2.60251837 2.00880946,0.271874194 2.00880946,0.271874194 Z" id="Rectangle-7" transform="translate(4.691933, 7.958406) scale(-1, 1) rotate(176.000000) translate(-4.691933, -7.958406) "></path>
                </g>
            </g>
        </g>
    </g>
</svg>