<?xml version="1.0" encoding="UTF-8"?>
<svg width="246px" height="69px" viewBox="0 0 246 69" version="1.1" xmlns="http://www.w3.org/2000/svg" xmlns:xlink="http://www.w3.org/1999/xlink">
    <!-- Generator: Sketch 41.2 (35397) - http://www.bohemiancoding.com/sketch -->
    <title>sherlock</title>
    <desc>Created with Sketch.</desc>
    <defs></defs>
    <g id="Page-1" stroke="none" stroke-width="1" fill="none" fill-rule="evenodd">
        <g id="Desktop-HD-Copy" transform="translate(-390.000000, -20.000000)">
            <g id="sherlock" transform="translate(390.000000, 20.000000)">
                <path d="M37.5,68.5 L232.5,68.5" id="Line" stroke="#FFFFFF" stroke-linecap="square"></path>
                <g id="Group" fill="#FFFFFF">
                    <path d="M29.4474111,21.7265625 C29.4005358,21.5859368 29.5411594,21.2226592 29.8692861,20.6367187 C30.1974127,20.0507783 30.5606903,19.3242231 30.9591298,18.4570312 C31.3575693,17.5898394 31.7560028,16.6054743 32.1544423,15.5039062 C32.5528818,14.4023382 32.834129,13.2656309 32.9981923,12.09375 C33.1622556,10.9218691 33.150537,9.75000586 32.9630361,8.578125 C32.7755351,7.40624414 32.2833525,6.28125539 31.4864736,5.203125 C31.0177212,4.64062219 30.3263219,4.3242191 29.4122548,4.25390625 C28.4981877,4.1835934 27.4669481,4.32421699 26.3185048,4.67578125 C25.1700616,5.02734551 23.974761,5.56640262 22.7325673,6.29296875 C21.4903736,7.01953488 20.3536662,7.86327645 19.3224111,8.82421875 C18.2911559,9.78516105 17.4122584,10.8515566 16.6856923,12.0234375 C15.9591262,13.1953184 15.548974,14.3906189 15.4552236,15.609375 C15.3614731,16.5937549 15.396629,17.5078083 15.5606923,18.3515625 C15.7247556,19.1953167 15.9474097,19.9687465 16.2286611,20.671875 C16.5099125,21.3750035 16.8145969,22.031247 17.1427236,22.640625 C17.4708502,23.250003 17.7755347,23.7890602 18.0567861,24.2578125 C18.4317879,24.9140658 19.0177196,25.640621 19.8145986,26.4375 C20.6114775,27.234379 21.4786564,28.1367137 22.4161611,29.1445312 C23.3536657,30.1523488 24.2911564,31.2890562 25.2286611,32.5546875 C26.1661657,33.8203188 26.98647,35.249992 27.6895986,36.84375 C28.3927271,38.437508 28.8849097,40.2187402 29.1661611,42.1875 C29.4474125,44.1562598 29.4239752,46.3359255 29.0958486,48.7265625 C28.580221,52.1953298 27.7599167,55.0898321 26.6349111,57.4101562 C25.5099054,59.7304804 24.279449,61.593743 22.9435048,63 C21.6075606,64.406257 20.2599179,65.4257781 18.9005361,66.0585937 C17.5411543,66.6914094 16.4161655,67.1015616 15.5255361,67.2890625 C14.8224075,67.4296882 13.9903846,67.5585932 13.0294423,67.6757812 C12.0685,67.7929693 11.0606976,67.7695321 10.0060048,67.6054687 C8.95131204,67.4414054 7.88491645,67.1132837 6.80678606,66.6210937 C5.72865567,66.1289038 4.76772778,65.3671927 3.92397356,64.3359375 C2.93959364,63.1640566 2.16616387,61.8984443 1.60366106,60.5390625 C1.08803348,59.3671816 0.701318599,58.0195389 0.44350481,56.4960937 C0.185691021,54.9726486 0.314595982,53.3906332 0.83022356,51.75 C1.20522544,51.3281229 1.60365895,50.9531266 2.02553606,50.625 C2.44741317,50.2968734 2.86928395,50.0156262 3.29116106,49.78125 C3.7599134,49.4999986 4.25209598,49.2421887 4.76772356,49.0078125 C5.37710161,48.8203116 5.98647051,48.6562507 6.59584856,48.515625 C7.11147614,48.4218745 7.66225188,48.3632814 8.24819231,48.3398437 C8.83413274,48.3164061 9.38490848,48.3984366 9.90053606,48.5859375 C9.19740754,49.3828165 8.70522497,50.132809 8.42397356,50.8359375 C8.23647262,51.2109394 8.09584903,51.5390611 8.00209856,51.8203125 C7.81459762,52.710942 7.75600446,53.7773375 7.82631731,55.0195312 C7.89663016,56.261725 8.15444008,57.4570255 8.59975481,58.6054687 C9.04506954,59.753912 9.68959434,60.7382771 10.5333486,61.5585937 C11.3771028,62.3789104 12.5020915,62.8124998 13.9083486,62.859375 C17.3302407,62.9531255 20.2364616,60.2812772 22.6270986,54.84375 C23.4239775,53.1562416 23.8341297,51.4453212 23.8575673,49.7109375 C23.8810049,47.9765538 23.6700695,46.312508 23.2247548,44.71875 C22.7794401,43.124992 22.1935084,41.6367257 21.4669423,40.2539062 C20.7403762,38.8710868 20.0021023,37.6875049 19.2520986,36.703125 C18.5020948,35.7187451 17.5997601,34.6523495 16.5450673,33.5039062 C15.4903745,32.355463 14.4474162,31.1015693 13.4161611,29.7421875 C12.3849059,28.3828057 11.4591339,26.906258 10.6388173,25.3125 C9.81850071,23.718742 9.26772497,21.9843844 8.98647356,20.109375 C8.61147169,17.4843619 8.85756297,15.0820421 9.72475481,12.9023437 C10.5919466,10.7226454 11.7638099,8.8125082 13.2403798,7.171875 C14.7169497,5.5312418 16.334121,4.19531766 18.0919423,3.1640625 C19.8497636,2.13280734 21.4083418,1.47656391 22.7677236,1.1953125 C30.3146363,-0.304695 35.2598993,0.960917344 37.6036611,4.9921875 C38.588041,6.53907023 39.1270981,8.17967883 39.2208486,9.9140625 C39.314599,11.6484462 39.2091313,13.2538989 38.9044423,14.7304687 C38.5997533,16.2070386 38.224757,17.4492137 37.7794423,18.4570312 C37.3341276,19.4648488 37.0411618,20.0156245 36.9005361,20.109375 C36.6192847,20.3906264 36.1739766,20.6953109 35.5645986,21.0234375 C34.9552205,21.3515641 33.9708554,21.6562486 32.6114736,21.9375 C32.2364717,22.0312505 31.8614754,22.078125 31.4864736,22.078125 C31.1583469,22.078125 30.8067879,22.0546877 30.4317861,22.0078125 C30.0567842,21.9609373 29.7286625,21.8671882 29.4474111,21.7265625 Z M75,39.1640625 C75.3281266,38.7890606 74.316027,42 74.316027,42 C74.316027,42 74.175402,44.3320312 74.175402,44.3320312 C74.175402,44.3320312 71.7496275,46.8749939 70.4136833,48.09375 C69.0777391,49.3125061 67.7300963,50.4609321 66.3707145,51.5390625 C65.0113327,52.6171929 63.6988459,53.507809 62.4332145,54.2109375 C61.0269575,55.0078165 59.8433756,55.40625 58.8824333,55.40625 C57.921491,55.40625 56.9722817,54.7968811 56.034777,53.578125 C55.1910228,52.4999946 54.7808707,51.33985 54.8043083,50.0976562 C54.8277459,48.8554625 55.0972745,47.2968844 55.612902,45.421875 C55.9410287,44.2499941 56.3980554,42.8554768 56.9839958,41.2382812 C57.5699362,39.6210857 58.0386815,38.0625075 58.3902458,36.5625 C58.7418101,35.0624925 58.8472777,33.7851615 58.706652,32.7304688 C58.5660263,31.675776 57.9566574,31.1484375 56.878527,31.1484375 C56.1285233,31.1484375 55.3199376,31.4062474 54.4527458,31.921875 C53.585554,32.4375026 52.7183751,33.1054646 51.8511833,33.9257812 C50.9839915,34.7460979 50.1519685,35.6718698 49.3550895,36.703125 C48.5582106,37.7343802 47.8550926,38.7421826 47.2457145,39.7265625 C46.8707127,41.5546966 46.4957164,43.3593661 46.1207145,45.140625 C45.7925879,46.6406325 45.4527476,48.2695225 45.1011833,50.0273438 C44.749619,51.785165 44.4097787,53.3437432 44.081652,54.703125 C43.8004006,54.9375012 43.4957162,55.101562 43.1675895,55.1953125 C42.8394629,55.289063 42.5347785,55.3359375 42.253527,55.3359375 C41.9254004,55.3359375 41.5972787,55.3125002 41.269152,55.265625 C40.8941502,55.1718745 40.5425912,55.0312509 40.2144645,54.84375 C39.9332131,54.6562491 39.651966,54.4101578 39.3707145,54.1054688 C39.0894631,53.8007797 38.8785277,53.3906276 38.737902,52.875 C40.8472876,44.2030816 42.5113335,37.2422137 43.7300895,31.9921875 C44.9488456,26.7421613 45.8863363,22.7343888 46.5425895,19.96875 C47.2925933,16.6874836 47.8082131,14.4140688 48.0894645,13.1484375 C48.2300902,12.257808 48.3472766,11.3906292 48.441027,10.546875 C48.5347775,9.79687125 48.581652,9.02344148 48.581652,8.2265625 C48.581652,7.42968352 48.5113402,6.70312828 48.3707145,6.046875 C48.7457164,5.81249883 49.1558686,5.6250007 49.6011833,5.484375 C50.046498,5.3437493 50.4800874,5.22656297 50.9019645,5.1328125 C51.4175921,4.9921868 51.933212,4.87500047 52.4488395,4.78125 C52.9644671,4.68749953 53.4332124,4.640625 53.8550895,4.640625 C54.2300914,4.640625 54.5816504,4.6757809 54.909777,4.74609375 C55.2379037,4.8164066 55.4488391,4.96874883 55.5425895,5.203125 C55.823841,5.43750117 55.9527459,5.90624648 55.9293083,6.609375 C55.9058707,7.31250352 55.8472775,8.03905875 55.753527,8.7890625 C55.5660261,9.67969195 55.3550907,10.6406198 55.1207145,11.671875 C54.1363346,15.468769 53.0347831,19.1601383 51.816027,22.7460938 C50.597271,26.3320492 49.4722822,30.1640421 48.441027,34.2421875 C49.0504051,33.3046828 49.7769603,32.3437549 50.6207145,31.359375 C51.4644688,30.3749951 52.3902408,29.4726604 53.3980583,28.6523438 C54.4058758,27.8320271 55.4722714,27.1523464 56.597277,26.6132812 C57.7222827,26.0742161 58.9175832,25.8046875 60.1832145,25.8046875 C60.8394678,25.8046875 61.4605554,25.9101552 62.0464958,26.1210938 C62.6324362,26.3320323 63.1480561,26.6835913 63.5933708,27.1757812 C64.0386855,27.6679712 64.3785259,28.3242146 64.612902,29.1445312 C64.8472782,29.9648479 64.9410273,30.9843689 64.894152,32.203125 C64.894152,32.9531288 64.8121216,33.7265585 64.6480583,34.5234375 C64.483995,35.3203165 64.261341,36.1992139 63.9800895,37.1601562 C63.6988381,38.1210986 63.3355605,39.1874941 62.8902458,40.359375 C62.4449311,41.5312559 61.9175926,42.8906173 61.3082145,44.4375 C60.8863374,45.5156304 60.5582157,46.4296838 60.3238395,47.1796875 C60.0894634,47.9296912 60.1363379,48.5859347 60.4644645,49.1484375 C60.8863417,49.8984413 61.7183646,50.0742207 62.9605583,49.6757812 C64.202752,49.2773418 66.0660146,48.0703226 68.550402,46.0546875 C69.1129049,45.5859352 69.745711,45.0000035 70.4488395,44.296875 C71.1519681,43.5937465 71.8316488,42.8789099 72.487902,42.1523438 C73.1441553,41.4257776 73.7535242,40.7343783 74.316027,40.078125 C74.8785299,39.4218717 75,39.1640625 75,39.1640625 Z M106.458081,39.375 C105.051823,41.4375103 103.458089,43.4413965 101.676831,45.3867188 C99.8955716,47.332041 98.0088717,49.0663986 96.0166743,50.5898438 C94.0244768,52.1132889 91.9854347,53.3437453 89.8994868,54.28125 C87.8135389,55.2187547 85.7862154,55.6875 83.8174555,55.6875 C82.7862004,55.6875 81.6729303,55.4414087 80.4776118,54.9492188 C79.2822933,54.4570288 78.1924605,53.6953177 77.2080805,52.6640625 C76.2237006,51.6328073 75.4385522,50.2968832 74.8526118,48.65625 C74.2666714,47.0156168 74.0908919,45.0234492 74.325268,42.6796875 C74.512769,40.7578029 75.1104192,38.7304794 76.1182368,36.5976562 C77.1260543,34.4648331 78.3682294,32.5078214 79.8447993,30.7265625 C81.3213692,28.9453036 82.985415,27.4687559 84.8369868,26.296875 C86.6885585,25.1249941 88.5518212,24.5390625 90.4268305,24.5390625 C92.2080894,24.5390625 93.497139,24.9843705 94.294018,25.875 C95.090897,26.7656295 95.442456,27.8671809 95.3487055,29.1796875 C95.2080798,30.6328198 94.7979277,31.9687439 94.1182368,33.1875 C93.4385459,34.4062561 92.6299602,35.5078076 91.6924555,36.4921875 C90.7549508,37.4765674 89.7588671,38.3671835 88.7041743,39.1640625 C87.6494815,39.9609415 86.6533977,40.6874967 85.715893,41.34375 C84.6846379,42.0468785 83.7002727,42.7148406 82.762768,43.3476562 C81.8252633,43.9804719 81.004959,44.5546849 80.3018305,45.0703125 C80.3487058,46.2421934 80.5596412,47.2265585 80.934643,48.0234375 C81.3096449,48.8203165 81.7783902,49.4648413 82.340893,49.9570312 C82.9033958,50.4492212 83.5479206,50.8007802 84.2744868,51.0117188 C85.0010529,51.2226573 85.7393268,51.328125 86.4893305,51.328125 C88.0830885,51.328125 89.7471344,50.8242238 91.481518,49.8164062 C93.2159017,48.8085887 94.9151035,47.5898509 96.5791743,46.1601562 C98.2432451,44.7304616 99.7901046,43.2421952 101.219799,41.6953125 C102.649494,40.1484298 103.833076,38.8125056 104.770581,37.6875 C105.098707,37.3124981 105.438548,37.0898441 105.790112,37.0195312 C106.141676,36.9492184 106.422923,36.9960929 106.633862,37.1601562 C106.8448,37.3242196 106.950268,37.6054668 106.950268,38.0039062 C106.950268,38.4023457 106.786207,38.8593724 106.458081,39.375 Z M88.4580805,28.546875 C87.8955777,28.546875 87.2276156,28.8281222 86.4541743,29.390625 C85.6807329,29.9531278 84.9190218,30.7617135 84.169018,31.8164062 C83.4190143,32.871099 82.7158963,34.1601486 82.059643,35.6835938 C81.4033897,37.2070389 80.9112072,38.9531152 80.5830805,40.921875 C81.1455833,40.4999979 81.7549522,40.0664085 82.4112055,39.6210938 C83.0674588,39.175779 83.7237022,38.6953151 84.3799555,38.1796875 C86.3955906,36.6328048 87.8018265,35.2734434 88.5987055,34.1015625 C89.3955845,32.9296816 89.8408926,31.9218792 89.934643,31.078125 C90.0283935,30.1874955 89.9346444,29.5429707 89.653393,29.1445312 C89.3721416,28.7460918 88.9737081,28.546875 88.4580805,28.546875 Z M100.350134,53.6484375 C100.022007,54.1640651 99.6587298,54.5039054 99.2602903,54.6679688 C98.8618508,54.8320321 98.5102918,54.8554693 98.2056028,54.7382812 C97.9009137,54.6210932 97.701697,54.3750019 97.6079465,54 C97.514196,53.6249981 97.6079451,53.1562528 97.8891965,52.59375 L98.8384153,50.6953125 C99.3306052,49.7109326 99.9165369,48.5273507 100.596228,47.1445312 C101.275919,45.7617118 102.014193,44.2617268 102.811072,42.6445313 C103.60795,41.0273357 104.369662,39.4921948 105.096228,38.0390625 C105.822794,36.5859302 106.490756,35.285162 107.100134,34.1367188 C107.709512,32.9882755 108.15482,32.1562526 108.436072,31.640625 C107.920444,31.1718727 107.568885,30.8320323 107.381384,30.6210938 C107.193883,30.4101552 107.053259,29.9531285 106.959509,29.25 C106.865759,28.640622 107.006382,27.8437549 107.381384,26.859375 C107.756386,25.8749951 108.248568,24.9257858 108.857947,24.0117188 C109.467325,23.0976517 110.147005,22.3125033 110.897009,21.65625 C111.647013,20.9999967 112.373568,20.671875 113.076697,20.671875 C114.389203,20.671875 115.314975,21.0937458 115.85404,21.9375 C116.393105,22.7812542 116.709509,23.648433 116.803259,24.5390625 C116.897009,25.1484405 116.850135,25.9218703 116.662634,26.859375 C116.475133,27.7968797 116.123574,28.6406212 115.607947,29.390625 C115.748572,29.4843755 115.93607,29.5898432 116.170447,29.7070312 C116.404823,29.8242193 116.779819,29.8828125 117.295447,29.8828125 C118.04545,29.8828125 118.572789,29.835938 118.877478,29.7421875 C119.182167,29.648437 119.662631,29.6015625 120.318884,29.6015625 C121.115763,29.6015625 121.772006,29.8007793 122.287634,30.1992188 C122.803262,30.5976582 123.225132,31.0898408 123.553259,31.6757812 C123.881386,32.2617217 124.127477,32.8945279 124.29154,33.5742188 C124.455604,34.2539096 124.561071,34.8749972 124.607947,35.4375 C124.748572,36.6093809 124.443888,37.8281187 123.693884,39.09375 C122.94388,40.3593813 122.029827,41.74218 120.951697,43.2421875 C120.295443,44.1796922 119.6392,45.2343691 118.982947,46.40625 C118.326693,47.5781309 118.045446,48.6328078 118.139197,49.5703125 C118.232947,50.1796905 118.397008,50.6718731 118.631384,51.046875 C118.86576,51.4218769 119.522004,51.609375 120.600134,51.609375 C121.397013,51.609375 122.27591,51.3164092 123.236853,50.7304688 C124.197795,50.1445283 125.18216,49.3945358 126.189978,48.4804688 C127.197795,47.5664017 128.193879,46.5585993 129.178259,45.4570312 C130.162639,44.3554632 131.076692,43.277349 131.920447,42.2226562 C132.764201,41.1679635 133.479037,40.2187542 134.064978,39.375 C134.650918,38.5312458 135.084508,37.9218769 135.365759,37.546875 C135.600135,37.1718731 135.90482,36.9140632 136.279822,36.7734375 C136.654823,36.6328118 136.982945,36.6328118 137.264197,36.7734375 C137.545448,36.9140632 137.721227,37.1953104 137.79154,37.6171875 C137.861853,38.0390646 137.686074,38.601559 137.264197,39.3046875 C136.982945,39.7734398 136.502481,40.5234323 135.82279,41.5546875 C135.143099,42.5859427 134.322795,43.7343687 133.361853,45 C132.40091,46.2656313 131.334515,47.5663996 130.162634,48.9023438 C128.990753,50.2382879 127.760297,51.4570257 126.471228,52.5585938 C125.182159,53.6601618 123.893109,54.5624965 122.60404,55.265625 C121.314971,55.9687535 120.084515,56.3203125 118.912634,56.3203125 C117.693878,56.3203125 116.686075,56.0859398 115.889197,55.6171875 C115.092318,55.1484352 114.447793,54.5742221 113.955603,53.8945312 C113.463413,53.2148404 113.111854,52.4648479 112.900915,51.6445312 C112.689977,50.8242146 112.607946,50.0625035 112.654822,49.359375 C112.701697,48.7968722 112.854039,48.1992219 113.111853,47.5664062 C113.369667,46.9335906 113.674351,46.2773471 114.025915,45.5976562 C114.37748,44.9179654 114.752476,44.2382846 115.150915,43.5585938 C115.549355,42.8789029 115.912632,42.2109408 116.240759,41.5546875 C117.037638,40.1953057 117.682163,39.0351611 118.174353,38.0742188 C118.666543,37.1132764 118.912634,36.3046908 118.912634,35.6484375 C118.912634,35.2265604 118.818885,34.8515641 118.631384,34.5234375 C118.443883,34.1953109 118.139199,34.03125 117.717322,34.03125 C117.43607,34.03125 117.236853,34.0429686 117.119665,34.0664062 C117.002477,34.0898439 116.885291,34.1015625 116.768103,34.1015625 C116.650915,34.1015625 116.486854,34.1132811 116.275915,34.1367188 C116.064977,34.1601564 115.748574,34.171875 115.326697,34.171875 C114.717318,34.171875 114.201699,34.0781259 113.779822,33.890625 C113.357944,33.7031241 112.959511,33.5625005 112.584509,33.46875 C112.397008,33.7968766 111.975137,34.4999946 111.318884,35.578125 C110.662631,36.6562554 109.90092,37.9218677 109.033728,39.375 C108.166536,40.8281323 107.252483,42.3515545 106.29154,43.9453125 C105.330598,45.5390705 104.428263,47.0273368 103.584509,48.4101562 C102.740755,49.7929757 102.025918,50.9648389 101.439978,51.9257812 C100.854037,52.8867236 100.49076,53.4609366 100.350134,53.6484375 Z M132.84375,52.875 C134.90626,44.2030816 136.558588,37.2422137 137.800781,31.9921875 C139.042975,26.7421613 139.992184,22.7343888 140.648438,19.96875 C141.398441,16.6874836 141.914061,14.4140688 142.195312,13.1484375 C142.335938,12.257808 142.453125,11.3906292 142.546875,10.546875 C142.640625,9.79687125 142.6875,9.02344148 142.6875,8.2265625 C142.6875,7.42968352 142.617188,6.70312828 142.476562,6.046875 C142.851564,5.81249883 143.261717,5.6250007 143.707031,5.484375 C144.152346,5.3437493 144.585935,5.22656297 145.007812,5.1328125 C145.52344,4.9921868 146.03906,4.87500047 146.554688,4.78125 C147.070315,4.68749953 147.53906,4.640625 147.960938,4.640625 C148.335939,4.640625 148.687498,4.6757809 149.015625,4.74609375 C149.343752,4.8164066 149.554687,4.96874883 149.648438,5.203125 C149.929689,5.43750117 150.058594,5.90624648 150.035156,6.609375 C150.011719,7.31250352 149.953125,8.03905875 149.859375,8.7890625 C149.671874,9.67969195 149.460939,10.6406198 149.226562,11.671875 C148.66406,13.6875101 147.89063,16.593731 146.90625,20.390625 C146.062496,23.6250162 144.925788,28.0312221 143.496094,33.609375 C142.066399,39.1875279 140.273448,46.2187076 138.117188,54.703125 C137.882811,54.9375012 137.601564,55.101562 137.273438,55.1953125 C136.945311,55.289063 136.640626,55.3359375 136.359375,55.3359375 C136.031248,55.3359375 135.679689,55.3125002 135.304688,55.265625 C134.976561,55.1718745 134.648439,55.0312509 134.320312,54.84375 C134.039061,54.6562491 133.757814,54.4101578 133.476562,54.1054688 C133.195311,53.8007797 132.984376,53.3906276 132.84375,52.875 Z M172.087366,42.8203125 C171.618614,44.6015714 170.985807,46.2656173 170.188928,47.8125 C169.39205,49.3593827 168.44284,50.6953069 167.341272,51.8203125 C166.239704,52.9453181 164.997529,53.8242156 163.61471,54.4570312 C162.23189,55.0898469 160.720187,55.40625 159.079553,55.40625 C157.157669,55.40625 155.645965,54.9960979 154.544397,54.1757812 C153.442829,53.3554646 152.622525,52.3359436 152.08346,51.1171875 C151.544395,49.8984314 151.216273,48.5625073 151.099085,47.109375 C150.981897,45.6562427 150.923303,44.2968813 150.923303,43.03125 C150.923303,42.1406205 151.028771,41.1562554 151.23971,40.078125 C151.450648,38.9999946 151.743614,37.8984431 152.118616,36.7734375 C152.493618,35.6484319 152.974082,34.5234431 153.560022,33.3984375 C154.145963,32.2734319 154.837362,31.2421922 155.634241,30.3046875 C155.915492,29.5078085 156.349082,28.8046905 156.935022,28.1953125 C157.520963,27.5859345 158.200643,27.0820332 158.974085,26.6835938 C159.747526,26.2851543 160.579549,25.9804698 161.470178,25.7695312 C162.360808,25.5585927 163.227987,25.453125 164.071741,25.453125 C164.212367,25.453125 164.341272,25.4765623 164.45846,25.5234375 C164.575648,25.5703127 164.704553,25.6171873 164.845178,25.6640625 C165.454557,25.7109377 166.216268,25.9453104 167.130335,26.3671875 C168.044402,26.7890646 168.935018,27.4218708 169.80221,28.265625 C170.669402,29.1093792 171.407675,30.1757748 172.017053,31.4648438 C172.626432,32.7539127 172.931116,34.3124909 172.931116,36.140625 C172.931116,36.5156269 172.907679,36.9726536 172.860803,37.5117188 C172.813928,38.0507839 172.767054,38.5078106 172.720178,38.8828125 C173.798309,38.4609354 174.923298,37.9453155 176.095178,37.3359375 C177.267059,36.7265595 178.403767,36.0820346 179.505335,35.4023438 C180.606903,34.7226529 181.626424,34.0312535 182.563928,33.328125 C183.501433,32.6249965 184.251426,31.9921903 184.813928,31.4296875 C185.282681,31.0078104 185.681114,30.7734377 186.009241,30.7265625 C186.337368,30.6796873 186.57174,30.7734363 186.712366,31.0078125 C186.852992,31.2421887 186.876429,31.5703104 186.782678,31.9921875 C186.688928,32.4140646 186.431118,32.8828099 186.009241,33.3984375 C185.774865,33.6796889 185.177215,34.2421833 184.216272,35.0859375 C183.25533,35.9296917 182.118623,36.8437451 180.806116,37.828125 C179.493609,38.8125049 178.063936,39.7734328 176.517053,40.7109375 C174.970171,41.6484422 173.493623,42.3515602 172.087366,42.8203125 Z M160.204553,32.1328125 C160.063928,32.5546896 159.993616,32.9999977 159.993616,33.46875 C159.993616,34.2187538 160.040491,35.0039021 160.134241,35.8242188 C160.227991,36.6445354 160.462364,37.3828092 160.837366,38.0390625 C161.212368,38.6953158 161.810018,39.2460915 162.630335,39.6914062 C163.450651,40.136721 164.587359,40.359375 166.040491,40.359375 C166.274867,40.359375 166.50924,40.3476564 166.743616,40.3242188 C166.977992,40.3007811 167.212365,40.2656252 167.446741,40.21875 C167.587367,39.609372 167.716272,39.0585962 167.83346,38.5664062 C167.950648,38.0742163 168.009241,37.6406269 168.009241,37.265625 C168.102991,36.3749955 168.102991,35.4609422 168.009241,34.5234375 C167.915491,33.5859328 167.739711,32.7304726 167.481897,31.9570312 C167.224083,31.1835899 166.895962,30.5507837 166.497522,30.0585938 C166.099083,29.5664038 165.618619,29.3203125 165.056116,29.3203125 C164.165487,29.3203125 163.310026,29.5664038 162.48971,30.0585938 C161.669393,30.5507837 160.907682,31.242183 160.204553,32.1328125 Z M155.704553,44.5078125 C155.704553,45.3515667 155.751428,46.1835896 155.845178,47.0039062 C155.938929,47.8242229 156.126427,48.5507781 156.407678,49.1835938 C156.68893,49.8164094 157.063926,50.3320293 157.532678,50.7304688 C158.001431,51.1289082 158.6108,51.328125 159.360803,51.328125 C160.204558,51.328125 160.977987,51.1289082 161.681116,50.7304688 C162.384245,50.3320293 163.017051,49.8164094 163.579553,49.1835938 C164.142056,48.5507781 164.645958,47.8242229 165.091272,47.0039062 C165.536587,46.1835896 165.923302,45.3281295 166.251428,44.4375 C165.923302,44.4843752 165.606899,44.5195311 165.30221,44.5429688 C164.997521,44.5664064 164.65768,44.578125 164.282678,44.578125 C162.50142,44.578125 160.966279,44.0507865 159.67721,42.9960938 C158.388141,41.941401 157.392057,40.5937582 156.688928,38.953125 C156.407677,39.9375049 156.173304,40.8984328 155.985803,41.8359375 C155.798303,42.7734422 155.704553,43.6640583 155.704553,44.5078125 Z M193.190357,51.609375 C194.643489,51.609375 196.248942,51.035162 198.006763,49.8867188 C199.764585,48.7382755 201.475505,47.3906327 203.139576,45.84375 C204.803647,44.2968673 206.327069,42.7148518 207.709888,41.0976562 C209.092708,39.4804607 210.135666,38.1796924 210.838794,37.1953125 C211.260672,36.5859345 211.659105,36.2226568 212.034107,36.1054688 C212.409109,35.9882807 212.690356,36.0468738 212.877857,36.28125 C213.065358,36.5156262 213.13567,36.8789038 213.088794,37.3710938 C213.041919,37.8632837 212.830984,38.4140595 212.455982,39.0234375 C212.127855,39.5859403 211.57708,40.394526 210.803638,41.4492188 C210.030197,42.5039115 209.116143,43.6523375 208.061451,44.8945312 C207.006758,46.136725 205.811457,47.4023373 204.475513,48.6914062 C203.139569,49.9804752 201.745052,51.1523385 200.291919,52.2070312 C198.838787,53.261724 197.338802,54.1289029 195.791919,54.8085938 C194.245037,55.4882846 192.721614,55.828125 191.221607,55.828125 C189.159097,55.828125 187.436458,55.4414101 186.053638,54.6679688 C184.670819,53.8945274 183.569267,52.8984436 182.748951,51.6796875 C181.928634,50.4609314 181.354421,49.1132886 181.026294,47.6367188 C180.698168,46.1601489 180.534107,44.6953198 180.534107,43.2421875 C180.534107,41.7890552 180.862229,39.9843858 181.518482,37.828125 C182.174735,35.6718642 183.147382,33.5976662 184.436451,31.6054688 C185.72552,29.6132713 187.35441,27.9023509 189.323169,26.4726562 C191.291929,25.0429616 193.612219,24.328125 196.284107,24.328125 C197.784114,24.328125 199.061445,24.8437448 200.116138,25.875 C201.170831,26.9062552 201.674732,28.3124911 201.627857,30.09375 C201.627857,30.9375042 201.487233,31.7695271 201.205982,32.5898438 C200.924731,33.4101604 200.549734,34.1367156 200.080982,34.7695312 C199.61223,35.4023469 199.061454,35.9062481 198.428638,36.28125 C197.795823,36.6562519 197.104423,36.84375 196.354419,36.84375 C195.745041,36.84375 195.288015,36.621096 194.983326,36.1757812 C194.678637,35.7304665 194.491139,35.2148467 194.420826,34.6289062 C194.350513,34.0429658 194.350513,33.4687528 194.420826,32.90625 C194.491139,32.3437472 194.573169,31.9687509 194.666919,31.78125 C194.901296,31.4531234 195.159106,31.2187507 195.440357,31.078125 L196.424732,30.5859375 C196.705983,30.4453118 196.928637,30.2343764 197.092701,29.953125 C197.256764,29.6718736 197.338794,29.3671891 197.338794,29.0390625 C197.338794,28.7109359 197.245045,28.4296887 197.057544,28.1953125 C196.870044,27.9609363 196.565359,27.84375 196.143482,27.84375 C195.721605,27.84375 194.959894,28.1835904 193.858326,28.8632812 C192.756758,29.5429721 191.631769,30.5507746 190.483326,31.8867188 C189.334882,33.2226629 188.315361,34.8984274 187.424732,36.9140625 C186.534103,38.9296976 186.065357,41.2734241 186.018482,43.9453125 C185.971607,45.4921952 186.182542,46.7578076 186.651294,47.7421875 C187.120047,48.7265674 187.705978,49.4999972 188.409107,50.0625 C189.112235,50.6250028 189.885665,51.0234363 190.729419,51.2578125 C191.573174,51.4921887 192.393478,51.609375 193.190357,51.609375 Z M245.090223,40.0078125 C244.012093,41.7890714 242.781636,43.6288968 241.398817,45.5273437 C240.015997,47.4257907 238.551168,49.1601484 237.004285,50.7304687 C235.457403,52.3007891 233.863669,53.6015573 232.223035,54.6328125 C230.582402,55.6640677 228.941794,56.1796875 227.30116,56.1796875 C225.660527,56.1796875 224.476945,55.6289118 223.750379,54.5273437 C223.023813,53.4257757 222.683973,52.1953193 222.730848,50.8359375 C222.730848,50.2265595 222.789441,49.6875023 222.906629,49.21875 C223.023817,48.7499977 223.152722,48.3281269 223.293348,47.953125 C223.433974,47.5781231 223.586316,47.1914082 223.750379,46.7929687 C223.914443,46.3945293 224.066785,45.9375026 224.20741,45.421875 C224.394911,44.812497 224.40663,44.2617212 224.242567,43.7695312 C224.078503,43.2773413 223.879287,42.8437519 223.64491,42.46875 C223.223033,42.9375023 222.742569,43.3476545 222.203504,43.6992187 C221.664439,44.050783 220.996477,44.2265625 220.199598,44.2265625 C219.637095,44.2265625 219.121475,43.9570339 218.652723,43.4179687 C218.183971,42.8789036 217.949598,42.2109415 217.949598,41.4140625 C217.949598,40.7578092 218.10194,40.2187521 218.406629,39.796875 C218.711318,39.3749979 219.062877,39.0468762 219.461317,38.8125 C219.859756,38.5781238 220.269908,38.414063 220.691785,38.3203125 C221.113663,38.226562 221.465222,38.1796875 221.746473,38.1796875 C221.887099,38.1796875 222.180064,38.2031248 222.625379,38.25 C223.070694,38.2968752 223.551158,38.367187 224.066785,38.4609375 C225.754294,37.1015557 226.961313,35.8710993 227.687879,34.7695312 C228.414445,33.6679632 228.473039,32.6718795 227.86366,31.78125 C227.488659,31.171872 227.019913,30.8554689 226.45741,30.8320312 C225.894908,30.8085936 225.308976,30.9492172 224.699598,31.2539062 C224.09022,31.5585953 223.49257,31.9453102 222.906629,32.4140625 C222.320689,32.8828148 221.79335,33.3281229 221.324598,33.75 C220.387093,34.6875047 219.344135,35.8007748 218.195692,37.0898437 C217.047248,38.3789127 216.098039,39.4453083 215.348035,40.2890625 C215.019909,41.6953195 214.691787,43.1718673 214.36366,44.71875 C214.082409,46.0781318 213.766006,47.6132727 213.414442,49.3242187 C213.062877,51.0351648 212.6996,52.8046784 212.324598,54.6328125 C212.043347,54.7734382 211.750381,54.8789059 211.445692,54.9492187 C211.141003,55.0195316 210.871474,55.0781248 210.637098,55.125 C210.355847,55.1718752 210.074599,55.1953125 209.793348,55.1953125 C209.418346,55.1953125 209.066787,55.1835939 208.73866,55.1601562 C208.410534,55.1367186 208.141005,55.0195323 207.930067,54.8085937 C207.719128,54.5976552 207.601942,54.2578148 207.578504,53.7890625 C207.555067,53.3203102 207.683972,52.6640667 207.965223,51.8203125 C208.340225,50.6015564 208.80897,48.9726664 209.371473,46.9335937 C209.933976,44.8945211 210.519907,42.6562622 211.129285,40.21875 C211.738664,37.7812378 212.359751,35.2382945 212.992567,32.5898438 C213.625382,29.941393 214.223033,27.4101683 214.785535,24.9960937 C215.348038,22.5820192 215.828502,20.4023535 216.226942,18.4570312 C216.625381,16.511709 216.918347,14.9765681 217.105848,13.8515625 C217.246474,12.6328064 217.387097,11.4609431 217.527723,10.3359375 C217.621473,9.39843281 217.680067,8.47266082 217.703504,7.55859375 C217.726942,6.64452668 217.668349,5.95312734 217.527723,5.484375 C217.762099,5.24999883 218.090221,5.03906344 218.512098,4.8515625 C218.933975,4.66406156 219.40272,4.52343797 219.918348,4.4296875 C220.433976,4.2890618 221.043344,4.17187547 221.746473,4.078125 C222.543352,3.98437453 223.211314,3.96093727 223.750379,4.0078125 C224.289444,4.05468773 224.676159,4.28906039 224.910535,4.7109375 C225.191787,5.17968984 225.25038,5.96483824 225.086317,7.06640625 C224.922253,8.16797426 224.582413,9.70311516 224.066785,11.671875 C223.410532,14.2031377 222.74257,16.5117083 222.062879,18.5976562 C221.383188,20.6836042 220.726945,22.6406159 220.094129,24.46875 C219.461314,26.2968841 218.851945,28.0663977 218.266004,29.7773437 C217.680064,31.4882898 217.152725,33.2343661 216.683973,35.015625 C217.621478,33.6562432 218.793341,32.2148514 220.199598,30.6914062 C221.605855,29.1679611 223.199589,27.9140674 224.980848,26.9296875 C226.855857,25.9453076 228.402717,25.453125 229.621473,25.453125 C231.12148,25.453125 232.199595,25.9570262 232.855848,26.9648437 C233.512101,27.9726613 233.816786,29.1562432 233.76991,30.515625 C233.723035,31.5937554 233.453507,32.5898392 232.961317,33.5039062 C232.469127,34.4179733 231.871476,35.2617149 231.168348,36.0351562 C230.465219,36.8085976 229.715227,37.4765597 228.918348,38.0390625 C228.121469,38.6015653 227.441788,39.0703106 226.879285,39.4453125 C227.535539,39.8203144 228.109752,40.3242156 228.601942,40.9570312 C229.094132,41.5898469 229.316786,42.3749953 229.26991,43.3125 C229.223035,44.5781313 228.976944,45.6914014 228.531629,46.6523437 C228.086314,47.6132861 227.86366,48.4921835 227.86366,49.2890625 C227.910536,49.8984405 228.039441,50.3437486 228.250379,50.625 C228.461318,50.9062514 228.918344,51.046875 229.621473,51.046875 C230.887104,51.046875 232.21131,50.5078179 233.594129,49.4296875 C234.976949,48.3515571 236.277717,47.109382 237.496473,45.703125 C238.715229,44.296868 239.840218,42.9023507 240.871473,41.5195312 C241.902728,40.1367118 242.699595,39.1171908 243.262098,38.4609375 C244.058977,37.6171833 244.726939,37.3945293 245.266004,37.7929687 C245.805069,38.1914082 245.746476,38.9296821 245.090223,40.0078125 Z" id="Sherlock"></path>
                    <polygon id="Path-10" points="107 35 105 38 101 46 107 42"></polygon>
                </g>
                <path d="M136,37 L138,36 C138,36 138.125974,37.2441571 138,38 C137.874026,38.7558429 137,42 137,42 L135,42 L134,42 L136,37 Z" id="Path-11" fill="#FFFFFF"></path>
                <path d="M182,34 L185,31 C186,30 188,29 188,29 L186,37 L180,37 L182,34 Z" id="Path-12" fill="#FFFFFF"></path>
                <path d="M211,37 L213,35 C213,35 214,36.3225523 214,37 C214,37.6774477 213,42 213,42 C213,42 210.574577,41.3830513 210,41 C209.425423,40.6169487 210,40 210,40 L211,37 Z" id="Path-13" fill="#FFFFFF"></path>
            </g>
        </g>
    </g>
</svg>